<svg width="24" height="20" viewBox="0 0 24 20" fill="none" xmlns="http://www.w3.org/2000/svg">
<path fill-rule="evenodd" clip-rule="evenodd" d="M24 2.31776C23.1028 2.69159 22.2056 2.99065 21.1589 3.06542C22.2056 2.46729 22.9533 1.49533 23.3271 0.373832C22.3551 0.971963 21.3084 1.34579 20.1869 1.57009C19.2897 0.598131 18.0187 0 16.6729 0C13.9813 0 11.7383 2.16822 11.7383 4.93458C11.7383 5.30841 11.8131 5.68224 11.8878 6.05608C7.7757 5.83178 4.18692 3.88785 1.71963 0.897196C1.27103 1.64486 1.04673 2.46729 1.04673 3.36449C1.04673 5.08411 1.94393 6.57944 3.21495 7.47664C2.39252 7.47664 1.64486 7.25234 0.971963 6.8785V6.95327C0.971963 9.34579 2.69159 11.2897 4.93458 11.7383C4.48598 11.8131 4.11215 11.8878 3.66355 11.8878C3.36449 11.8878 3.06542 11.8879 2.76636 11.8131C3.36449 13.757 5.23364 15.1776 7.3271 15.2523C5.68224 16.5981 3.51402 17.3458 1.19626 17.3458C0.82243 17.3458 0.373832 17.3458 0 17.271C2.24299 18.6168 4.85981 19.4393 7.62617 19.4393C16.6729 19.4393 21.6075 11.9626 21.6075 5.45794C21.6075 5.23364 21.6075 5.00935 21.6075 4.85981C22.5047 4.11215 23.3271 3.28972 24 2.31776Z" fill="#1DA1F2"/>
</svg>
